PathFileType	4	(X/Y/Z)	3_coords_data.trc
DataRate	CameraRate	NumFrames	NumMarkers	Units	OrigDataRate	OrigDataStartFrame	OrigNumFrames
30.0	30.0	8	21	m	30.0	1	62
Frame#	Time	THUMB_TIP	THUMB_IP	THUMB_MCP	THUMB_CMC	INDEX_TIP	INDEX_DIP	INDEX_PIP	INDEX_MCP	MIDDLE_TIP	MIDDLE_DIP	MIDDLE_PIP	MIDDLE_MCP	RING_TIP	RING_DIP	RING_PIP	RING_MCP	PINKY_TIP	PINKY_DIP	PINKY_PIP	PINKY_MCP	WRIST
X1	Y1	Z1	X2	Y2	Z2	X3	Y3	Z3	X4	Y4	Z4	X5	Y5	Z5	X6	Y6	Z6	X7	Y7	Z7	X8	Y8	Z8	X9	Y9	Z9	X10	Y10	Z10	X11	Y11	Z11	X12	Y12	Z12	X13	Y13	Z13	X14	Y14	Z14	X15	Y15	Z15	X16	Y16	Z16	X17	Y17	Z17	X18	Y18	Z18	X19	Y19	Z19	X20	Y20	Z20	X21	Y21	Z21
0	-2.749317978547796e-18	0.5413630265774793	-0.02243735198524255	-0.11589962364792583	0.5219312685066163	-0.021888035531195338	-0.1281513594314287	0.4932202626788885	-0.018458458630720986	-0.11663024200975824	0.47114738086717556	-0.027310037668778653	-0.07888997919854857	0.5640537095976357	0.059345449352069146	-0.1561695587880657	0.5499768848438003	0.05170244059620799	-0.14771808424171362	0.5315900280628362	0.04131482617017679	-0.1340787735094069	0.4999760324588095	0.023883446698750643	-0.11148810318575914	0.5288469185844191	-0.012279154639981082	-0.12230299849945636	0.5440408559574762	-0.004335597690366677	-0.128137736719107	0.5472519665614617	0.02304669999122161	-0.11868744083136568	0.5114229477622576	0.027939351275573288	-0.09244832315763257	0.5453385490875637	-0.013833853440310545	-0.11121980565475958	0.5606132250789755	-0.0042587637356020225	-0.1111758681517005	0.562425770070907	0.01693442471556411	-0.09822428821234236	0.5268805216737965	0.01585496211014531	-0.07898654118023835	0.6037622498860642	0.006251181756740831	-0.0811177201582498	0.5873867407214751	0.006257279817074052	-0.07613347875016008	0.5669488464667919	0.0035704829427056217	-0.07214780189543718	0.5320294958429478	-0.0036808188250018192	-0.06676811550284145	0.4622830810018609	-0.023011742144276925	-0.051989820119430985
1	0.03333333333333339	0.5416202643165958	-0.023229403586180225	-0.11641074324709927	0.5219872429153692	-0.022641193189958664	-0.1283354436286081	0.4932508480411051	-0.019272119326375986	-0.11685986299266249	0.47186177182216027	-0.02756264138140449	-0.0786019923964667	0.5649838396775618	0.05754488868837224	-0.15681857858010428	0.5509772879331161	0.05020861155599046	-0.14798706987167526	0.5322216313066273	0.04015577188080818	-0.1346014211397561	0.5006475046582534	0.02310472011062567	-0.11166733615859759	0.5294336268678209	-0.012640927905082144	-0.12247724959502304	0.5448866889791639	-0.005370324700321949	-0.1285056159095319	0.5481662258049558	0.022133954014430496	-0.11944091290339365	0.5123075352812082	0.0264969413555822	-0.0931489640143699	0.5447562817327744	-0.015850390271063636	-0.11139537977944658	0.5599774258332683	-0.006203322033147413	-0.11189622574877145	0.5618914093116869	0.015129307055447266	-0.09919049545048525	0.5268526227652559	0.015871248469344262	-0.07902979619941763	0.604005819931554	0.004861190057493053	-0.08163964225393189	0.5875510782042822	0.004466169005207826	-0.07694012812404205	0.5670969023173776	0.0025169912952421325	-0.07262278935547828	0.5320773995215845	-0.004319018775548994	-0.06735146682242477	0.462283081001861	-0.023011742144276925	-0.051989820119430985
2	0.06666666666666676	0.5417878985911607	-0.023814057334443278	-0.11675670056318455	0.5220153042952939	-0.023200048881658913	-0.12844718850984288	0.4932632707089699	-0.01986658866395713	-0.11700041570577735	0.47237835732921374	-0.027744070909773266	-0.0783784573583951	0.5656583379091745	0.056117296818262885	-0.1573490629200427	0.5517136225606185	0.04904466097033827	-0.14820998550432968	0.5326926848704149	0.03923167357111068	-0.13502214865790213	0.5011566877407221	0.02249406788094538	-0.11180643124928963	0.5298888123628327	-0.013018600066125013	-0.12261914755618275	0.545510225601552	-0.006216080188748918	-0.12875894981220615	0.5488340724676679	0.021382960013506036	-0.12000369014016171	0.5129678444425466	0.025381801689758787	-0.09366415951605472	0.5442702806329813	-0.01732299371264273	-0.11140212966154378	0.5594420406442345	-0.007632080524365287	-0.1123528660804376	0.5614489587177699	0.013805653697087361	-0.09983984045525496	0.5268346012341112	0.01588738075257179	-0.07904961432709667	0.6041484218040709	0.003773240920727422	-0.0820658438792804	0.5876435790874854	0.00309598427633348	-0.0775790309415258	0.5671989205720871	0.0017013185446111412	-0.07300925362906208	0.5321111080069258	-0.004815901287549246	-0.06778864963609299	0.4622830810018608	-0.023011742144276925	-0.051989820119430985
3	0.10000000000000014	0.5418951365978557	-0.02422544883038172	-0.11698026997530747	0.5220313051099206	-0.023595765320472167	-0.12851420674018815	0.493272122191842	-0.020276249016015407	-0.11708135016849319	0.4727341654651487	-0.027868152771424265	-0.07821690200746717	0.5661241894851601	0.05503273274519957	-0.15777271610624033	0.5522289668638548	0.04817707680377489	-0.14839600186738383	0.5330281683365026	0.03852146500548817	-0.13535344346372657	0.5015265597063081	0.022032325483268972	-0.11191430897614685	0.5302240006933221	-0.013392153035597959	-0.12273543922259889	0.5459504030397234	-0.0068821612915556385	-0.1289241609590807	0.5492978711045494	0.020788769024403436	-0.12040808069851994	0.513439984500886	0.024566417943441027	-0.09402457717902296	0.5438938230709381	-0.018349243554503625	-0.11132345014493777	0.5590276250879456	-0.008639640073924648	-0.11262407951564812	0.5611190239676662	0.01287205342226469	-0.1002526174900058	0.526825749723575	0.01590122823512799	-0.07905081861413976	0.6042300648011587	0.0029561433626286715	-0.08240595431050662	0.5876943972536317	0.0021020210728318056	-0.07806519701808246	0.5672683466619741	0.001089173383124975	-0.07331518483025629	0.532136109651093	-0.0051884428097022095	-0.06809973580386952	0.4622830810018608	-0.023011742144276925	-0.051989820119430985
4	0.13333333333333353	0.5419601376756432	-0.0244932908568348	-0.11711121022308413	0.5220436311495965	-0.023855589809353983	-0.12855350479943473	0.4932843932004395	-0.02053214563933553	-0.11712192785517472	0.47295932537578633	-0.027946020333971477	-0.07811146669492325	0.5664213057257516	0.054255818387895643	-0.15810082047773028	0.5525610972016355	0.04756976743499616	-0.14855140466715566	0.5332504889824276	0.038002317748855624	-0.13560636122545827	0.501778133846657	0.021699883450249507	-0.11199793916578715	0.5304536117527942	-0.01374511044746099	-0.1228310593131674	0.5462399961556725	-0.00738392297611451	-0.12902180736481206	0.5495939723506387	0.020339731676251444	-0.12068158156451453	0.5137556808187518	0.024016618553548946	-0.09425725027747811	0.5436228187922492	-0.01901228056235854	-0.1112117588336703	0.5587349241492802	-0.009305842609638376	-0.11276396176756448	0.5609028447895815	0.012252511734450772	-0.10048725793176028	0.52682536792236	0.01591066926993631	-0.07903814867730502	0.604276268856146	0.002375700683250187	-0.08267057958382495	0.5877227367776124	0.0014352434294440941	-0.07841662661291382	0.5673141902591146	0.0006503920405324937	-0.0735496710655893	0.532155893161311	-0.005453575696411833	-0.06830379896946281	0.4622830810018608	-0.023011742144276925	-0.051989820119430985
5	0.1666666666666669	0.5419938366384	-0.024643918412519672	-0.11717066144086896	0.5220557602892548	-0.02400371481324884	-0.12857518908769144	0.49330205895124324	-0.020662684137735837	-0.11713481438273932	0.4730790267546199	-0.02798690561773015	-0.07805445168628622	0.5665837711226693	0.05374696144300223	-0.1583445619693029	0.5527436945025436	0.047184950402428316	-0.14868059330977013	0.5333800123645046	0.037650076192141335	-0.13579091445996944	0.5019309369683476	0.02147690029675886	-0.112062869193158	0.5305932326333019	-0.014064970762060702	-0.12290925217769233	0.5464069633819867	-0.007740551057634076	-0.12906779382408579	0.5497540381989683	0.02001985627505798	-0.12084791396531991	0.5139430422062092	0.02369398176438342	-0.09438621921809542	0.5434452764739135	-0.0193822884648	-0.11109650121811465	0.5585539839548544	-0.009697670785836221	-0.11280972585827814	0.5607913446045921	0.011884309421454409	-0.10058711048123531	0.5268327692914688	0.015913589133841277	-0.07901627596556826	0.6043015345697046	0.0019959335361201813	-0.08287045549178235	0.5877393809204405	0.0010441098830169804	-0.07865274305118591	0.5673425251663021	0.00035767681678400276	-0.07372231670142093	0.5321725116376613	-0.005628155323787076	-0.06841916547030058	0.462283081001861	-0.023011742144276925	-0.051989820119430985
6	0.20000000000000023	0.5420026695022986	-0.0247013488764449	-0.11717436659035119	0.5220681192102399	-0.024062203889142098	-0.12858511583562832	0.49332396210706164	-0.02069439970658271	-0.1171286186652124	0.4731151743983436	-0.02799879005556044	-0.07803717738999555	0.5666412514492163	0.05346342425059514	-0.15851517026093742	0.552807503473686	0.046983732998286676	-0.1487868087224115	0.53343557267665	0.03743959639011635	-0.1359163935543049	0.5020034417352818	0.02134341738743123	-0.11211365715702898	0.5306585107079406	-0.014342685785795312	-0.12297175923295839	0.5464758537304804	-0.007973484861472563	-0.12907462243746498	0.5498064338723462	0.01981052727553595	-0.12092812285241772	0.5140274931833126	0.02355753056818799	-0.09443330655761234	0.5433460141622996	-0.019519677784138906	-0.1109912183964088	0.5584690809521233	-0.009872616669192813	-0.11278762111156698	0.5607699899837172	0.011714443014732678	-0.10058579129670026	0.5268472847914215	0.01590787566564461	-0.07898981877775912	0.604312967440724	0.0017801744482143778	-0.0830160556785951	0.5877493763323655	0.0008759363778895468	-0.0787935205269028	0.5673575438271863	0.00018566948303322395	-0.07384289251678289	0.5321870411100506	-0.005728974841385265	-0.06846365724217551	0.4622830810018608	-0.023011742144276925	-0.051989820119430985
7	0.23333333333333361	0.5419905282044752	-0.024688225472899783	-0.11713503713610635	0.5220794202300365	-0.0240518376698107	-0.12858679638062082	0.493347175514287	-0.020652665595853714	-0.11710969993570441	0.47308771752579115	-0.027988918307215255	-0.07805046596769871	0.5666203820115152	0.05336025576702966	-0.15862397762316027	0.5527813566264088	0.046926502945694365	-0.14887265971098335	0.5334349361574591	0.03734501774787488	-0.13599162755348249	0.5020134378378011	0.021279416510833843	-0.11215422009713116	0.5306646212712468	-0.014571904549117387	-0.12301914135103886	0.5464690984262017	-0.008105332051913938	-0.12905254354191925	0.5497775043225789	0.01969172662255661	-0.12094159233550339	0.5140326886962365	0.023564907749405034	-0.09441887481264338	0.5433086602402201	-0.019478484732786322	-0.11089941784182095	0.5584613410453627	-0.00988207822867282	-0.11271745156683072	0.5608213426492749	0.0116960869899779	-0.10051117624525352	0.5268682637627717	0.015891412735749427	-0.07896335709774416	0.6043135499235717	0.0016918614808048293	-0.08311747246974216	0.5877544729095312	0.0008777992956541525	-0.0788590371700359	0.5673623202433343	0.0001102537056266728	-0.07392112238687604	0.5321999466306041	-0.005772799833004633	-0.06845480607876075	0.462283081001861	-0.023011742144276925	-0.051989820119430985
